HIERARCHY
ROOT Hips
{
	OFFSET 0.000000 0.000000 0.000000
	CHANNELS 6 Xposition Yposition Zposition Zrotation Yrotation Xrotation 
	JOINT LHipJoint
	{
		OFFSET 0.000000 0.000000 0.000000
		CHANNELS 3 Zrotation Yrotation Xrotation
		JOINT LeftUpLeg
		{
			OFFSET 1.363060 -1.794630 0.839290
			CHANNELS 3 Zrotation Yrotation Xrotation
			JOINT LeftLeg
			{
				OFFSET 2.448110 -6.726130 0.000000
				CHANNELS 3 Zrotation Yrotation Xrotation
				JOINT LeftFoot
				{
					OFFSET 2.562200 -7.039590 0.000000
					CHANNELS 3 Zrotation Yrotation Xrotation
					JOINT LeftToeBase
					{
						OFFSET 0.157640 -0.433110 2.322550
						CHANNELS 3 Zrotation Yrotation Xrotation
						End Site
						{
							OFFSET 0.000000 0.000000 0.000000
						}
					}
				}
			}
		}
	}
	JOINT RHipJoint
	{
		OFFSET 0.000000 0.000000 0.000000
		CHANNELS 3 Zrotation Yrotation Xrotation
		JOINT RightUpLeg
		{
			OFFSET -1.305520 -1.794630 0.839290
			CHANNELS 3 Zrotation Yrotation Xrotation
			JOINT RightLeg
			{
				OFFSET -2.542530 -6.985550 0.000000
				CHANNELS 3 Zrotation Yrotation Xrotation
				JOINT RightFoot
				{
					OFFSET -2.568260 -7.056230 0.000000
					CHANNELS 3 Zrotation Yrotation Xrotation
					JOINT RightToeBase
					{
						OFFSET -0.164730 -0.452590 2.363150
						CHANNELS 3 Zrotation Yrotation Xrotation
						End Site
						{
							OFFSET 0.000000 0.000000 0.000000
						}
					}
				}
			}
		}
	}
	JOINT LowerBack
	{
		OFFSET 0.000000 0.000000 0.000000
		CHANNELS 3 Zrotation Yrotation Xrotation
		JOINT Spine
		{
			OFFSET 0.028270 2.035590 -0.193380
			CHANNELS 3 Zrotation Yrotation Xrotation
			JOINT Spine1
			{
				OFFSET 0.056720 2.048850 -0.042750
				CHANNELS 3 Zrotation Yrotation Xrotation
				JOINT Neck
				{
					OFFSET 0.000000 0.000000 0.000000
					CHANNELS 3 Zrotation Yrotation Xrotation
					JOINT Neck1
					{
						OFFSET -0.054170 1.746240 0.172020
						CHANNELS 3 Zrotation Yrotation Xrotation
						JOINT Head
						{
							OFFSET 0.104070 1.761360 -0.123970
							CHANNELS 3 Zrotation Yrotation Xrotation
							End Site
							{
								OFFSET 0.000000 0.000000 0.000000
							}
						}
					}
				}
				JOINT LeftShoulder
				{
					OFFSET 0.000000 0.000000 0.000000
					CHANNELS 3 Zrotation Yrotation Xrotation
					JOINT LeftArm
					{
						OFFSET 3.362410 1.200890 -0.311210
						CHANNELS 3 Zrotation Yrotation Xrotation
						JOINT LeftForeArm
						{
							OFFSET 4.983000 -0.000000 -0.000000
							CHANNELS 3 Zrotation Yrotation Xrotation
							JOINT LeftHand
							{
								OFFSET 3.483560 -0.000000 -0.000000
								CHANNELS 3 Zrotation Yrotation Xrotation
								JOINT LeftFingerBase
								{
									OFFSET 0.000000 0.000000 0.000000
									CHANNELS 3 Zrotation Yrotation Xrotation
									JOINT LeftHandIndex1
									{
										OFFSET 0.715260 -0.000000 -0.000000
										CHANNELS 3 Zrotation Yrotation Xrotation
										End Site
										{
											OFFSET 0.000000 0.000000 0.000000
										}
									}
								}
								JOINT LThumb
								{
									OFFSET 0.000000 0.000000 0.000000
									CHANNELS 3 Zrotation Yrotation Xrotation
									End Site
									{
										OFFSET 0.000000 0.000000 0.000000
									}
								}
							}
						}
					}
				}
				JOINT RightShoulder
				{
					OFFSET 0.000000 0.000000 0.000000
					CHANNELS 3 Zrotation Yrotation Xrotation
					JOINT RightArm
					{
						OFFSET -3.136600 1.374050 -0.404650
						CHANNELS 3 Zrotation Yrotation Xrotation
						JOINT RightForeArm
						{
							OFFSET -5.241900 -0.000000 -0.000000
							CHANNELS 3 Zrotation Yrotation Xrotation
							JOINT RightHand
							{
								OFFSET -3.444170 -0.000000 -0.000000
								CHANNELS 3 Zrotation Yrotation Xrotation
								JOINT RightFingerBase
								{
									OFFSET 0.000000 0.000000 0.000000
									CHANNELS 3 Zrotation Yrotation Xrotation
									JOINT RightHandIndex1
									{
										OFFSET -0.622530 -0.000000 -0.000000
										CHANNELS 3 Zrotation Yrotation Xrotation
										End Site
										{
											OFFSET 0.000000 0.000000 0.000000
										}
									}
								}
								JOINT RThumb
								{
									OFFSET 0.000000 0.000000 0.000000
									CHANNELS 3 Zrotation Yrotation Xrotation
									End Site
									{
										OFFSET 0.000000 0.000000 0.000000
									}
								}
							}
						}
					}
				}
			}
		}
	}
}
MOTION
Frames: 8
Frame Time: 0.008333
-13.147701 16.911745 0.478074 12.739030 83.201120 34.427223 -11.951148 5.272077 1.198930 -9.129385 9.055167 -4.840548 -1.685164 0.929878 19.527262 -0.029109 -5.250788 12.229184 -1.524500 0.000000 -78.723800 8.168990 -1.340904 2.805332 15.271114 0.260122 -45.613048 3.606267 -1.579594 27.867297 0.718636 6.192192 -6.472510 0.178200 -0.000000 -33.323200 6.814948 -2.847171 -4.141393 0.716636 -3.522332 -3.726695 -7.300953 -3.495185 -0.306301 6.435035 -10.479467 -8.175366 -4.676714 -0.340220 -0.250346 0.000000 0.000000 0.000000 2.971554 6.089323 0.698908 -62.280753 -23.696096 23.729106 -178.639683 -75.464560 179.943252 6.320922 -1.618452 -0.128471 -0.309167 0.686079 -0.000000 0.000000 0.000000 0.000000 0.000000 0.000000 0.000000 14.137075 -6.859767 1.188981 71.707002 -1.329295 -5.413498 0.520298 70.527569 -0.036863 -9.088371 2.902194 -0.254785 0.103717 -0.280974 0.000000 0.000000 0.000000 0.000000 0.000000 0.000000 0.000000 
-12.978733 16.868326 0.500197 14.742524 83.181504 36.275319 -12.000524 5.349534 1.166552 -8.968506 9.313496 -4.923370 -1.630504 1.029733 20.911962 -0.027935 -5.925524 12.650999 -1.775700 -0.000000 -78.697700 8.235368 -1.235727 2.769426 14.665968 0.582129 -46.026924 3.306095 -1.828918 30.838179 0.531075 5.675555 -8.056768 0.088000 0.000000 -28.133900 6.880583 -2.859127 -4.091943 0.735433 -3.537511 -3.712572 -7.279485 -3.511572 -0.294425 6.176885 -10.422479 -8.218272 -4.744647 -0.344573 -0.269551 0.000000 0.000000 0.000000 2.879587 6.175285 0.722788 -62.358050 -23.729493 23.733110 -178.609935 -75.420048 179.946007 6.083528 -1.712874 -0.129067 -0.304871 0.690452 -0.000000 0.000000 0.000000 0.000000 0.000000 0.000000 0.000000 14.237526 -6.811132 1.214149 71.506298 -1.171749 -5.487207 0.537434 69.869510 -0.037859 -9.375788 2.752964 -0.250303 0.107020 -0.277609 0.000000 0.000000 0.000000 0.000000 0.000000 0.000000 0.000000 
-12.811977 16.829718 0.519828 16.277023 83.264116 37.630271 -12.076060 5.413877 1.124470 -8.650217 9.603343 -5.118249 -1.553628 1.140372 22.460357 -0.014310 -6.681872 13.253769 -2.086300 0.000000 -78.637400 8.286789 -1.141914 2.708982 14.201871 0.816310 -46.218223 3.044347 -2.030182 33.512989 0.341939 5.133645 -9.590792 0.024300 0.000000 -24.063500 7.015196 -2.875679 -4.009347 0.767450 -3.561161 -3.694770 -7.258808 -3.537421 -0.288701 5.945129 -10.355235 -8.244469 -4.810937 -0.348863 -0.284292 0.000000 0.000000 0.000000 2.771260 6.241150 0.748804 -62.530179 -23.718720 23.780750 -178.600285 -75.554690 179.948781 5.852661 -1.798772 -0.128873 -0.299657 0.693141 -0.000000 0.000000 0.000000 0.000000 0.000000 0.000000 0.000000 14.361050 -6.764946 1.238703 71.274117 -0.927326 -5.564136 0.556530 69.136352 -0.038855 -9.665848 2.573993 -0.242527 0.110394 -0.273880 0.000000 0.000000 0.000000 0.000000 0.000000 0.000000 0.000000 
-12.647415 16.796794 0.537362 17.429897 83.452745 38.593309 -12.179253 5.462993 1.077325 -8.184584 9.911951 -5.441377 -1.454021 1.258278 24.156574 0.016840 -7.489781 14.074390 -2.462300 -0.000001 -78.468300 8.315983 -1.071117 2.629819 13.905230 0.957091 -46.181151 2.832468 -2.179291 35.769827 0.157643 4.581393 -11.012938 -0.010401 0.000000 -21.356800 7.211579 -2.895590 -3.907438 0.810947 -3.591996 -3.675912 -7.240167 -3.571475 -0.288102 5.745789 -10.281082 -8.252835 -4.875011 -0.353090 -0.293858 0.000000 0.000000 0.000000 2.646811 6.281719 0.775483 -62.788844 -23.657576 23.874598 -178.612705 -75.868538 179.951455 5.637177 -1.867809 -0.127690 -0.293770 0.693784 -0.000000 0.000000 0.000000 0.000000 0.000000 0.000000 0.000000 14.511934 -6.724967 1.262240 71.016754 -0.599992 -5.649172 0.577995 68.330810 -0.039793 -9.945856 2.367079 -0.231058 0.113734 -0.269785 0.000000 0.000000 0.000000 0.000000 0.000000 0.000000 0.000000 
-12.484933 16.770121 0.553283 18.257211 83.747028 39.236638 -12.308240 5.493628 1.030834 -7.587809 10.222666 -5.909378 -1.333440 1.378824 25.983370 0.069434 -8.313558 15.122382 -2.905400 0.000000 -78.079100 8.317154 -1.030890 2.540476 13.786377 1.015143 -45.931093 2.674357 -2.276601 37.542515 -0.020901 4.019143 -12.296605 -0.016800 0.000000 -20.006900 7.463109 -2.916411 -3.803115 0.864159 -3.627802 -3.659118 -7.225248 -3.611501 -0.291680 5.582638 -10.201406 -8.242201 -4.936315 -0.357262 -0.297501 0.000000 0.000000 0.000000 2.504449 6.293357 0.802011 -63.118309 -23.542421 24.014931 -178.648362 -76.359375 179.953909 5.444328 -1.911321 -0.125315 -0.287458 0.692045 -0.000000 0.000000 0.000000 0.000000 0.000000 0.000000 0.000000 14.691628 -6.691540 1.283827 70.742885 -0.201595 -5.748987 0.601844 67.465537 -0.040640 -10.207874 2.135964 -0.215990 0.116978 -0.265382 0.000000 0.000000 0.000000 0.000000 0.000000 0.000000 0.000000 
-12.324405 16.749824 0.568586 18.957824 84.134379 39.773525 -12.456731 5.502837 0.992593 -6.903983 10.505165 -6.526381 -1.196261 1.496748 27.915238 0.145161 -9.101190 16.380179 -3.405500 -0.000000 -77.322400 8.288810 -1.022263 2.448272 13.823622 0.996835 -45.505217 2.566910 -2.326470 38.824213 -0.194430 3.448657 -13.439132 0.002800 -0.000000 -19.833500 7.741495 -2.937657 -3.713081 0.921260 -3.666741 -3.646834 -7.215744 -3.655581 -0.297362 5.460524 -10.118903 -8.213091 -4.994028 -0.361358 -0.294947 0.000000 0.000000 0.000000 2.348774 6.274967 0.827095 -63.496425 -23.374030 24.199643 -178.707320 -77.020773 179.956059 5.279420 -1.921115 -0.121750 -0.280913 0.687618 -0.000000 0.000000 0.000000 0.000000 0.000000 0.000000 0.000000 14.902821 -6.666044 1.301620 70.465994 0.251951 -5.868270 0.627654 66.559292 -0.041393 -10.450521 1.887051 -0.197726 0.120106 -0.260769 -0.000000 0.000000 0.000000 0.000000 0.000000 0.000000 0.000000 
-12.165903 16.735705 0.584215 19.826406 84.594318 40.505269 -12.619135 5.487407 0.967317 -6.183939 10.732404 -7.282567 -1.048536 1.607609 29.924139 0.242573 -9.798720 17.801487 -3.940400 0.000000 -76.058900 8.230384 -1.042734 2.357433 13.978590 0.908328 -44.939694 2.502962 -2.334618 39.644505 -0.364711 2.869257 -14.448318 0.045600 0.000000 -20.533000 8.011164 -2.959454 -3.646012 0.975026 -3.706734 -3.639768 -7.213112 -3.701459 -0.303191 5.382002 -10.036056 -8.167064 -5.047094 -0.365315 -0.286370 0.000000 0.000000 0.000000 2.184489 6.227758 0.850334 -63.894752 -23.158883 24.424022 -178.788248 -77.842730 179.957849 5.144997 -1.888455 -0.116699 -0.274291 0.680239 -0.000000 0.000000 0.000000 0.000000 0.000000 0.000000 0.000000 15.144842 -6.649005 1.313762 70.202615 0.745070 -6.010383 0.654527 65.634266 -0.042075 -10.677107 1.629290 -0.177263 0.123103 -0.256095 -0.000000 0.000000 0.000000 0.000000 0.000000 0.000000 0.000000 
-12.009413 16.727467 0.600823 21.178004 85.107112 41.751517 -12.795522 5.443220 0.956570 -5.462741 10.891623 -8.167763 -0.896515 1.708210 31.987275 0.357147 -10.362805 19.311862 -4.477000 0.000000 -74.225400 8.137580 -1.091320 2.273537 14.216958 0.771342 -44.263492 2.473767 -2.306245 40.046867 -0.535293 2.269142 -15.331344 0.109200 -0.000000 -21.755800 8.248197 -2.981258 -3.607575 1.020804 -3.745792 -3.638465 -7.217372 -3.747029 -0.308399 5.343231 -9.953427 -8.105368 -5.094131 -0.369037 -0.271983 0.000000 0.000000 0.000000 2.010449 6.152305 0.872427 -64.285390 -22.902841 24.678712 -178.888342 -78.808130 179.959258 5.041324 -1.807185 -0.110064 -0.267727 0.669866 -0.000000 0.000000 0.000000 0.000000 0.000000 0.000000 0.000000 15.406753 -6.638446 1.319077 69.970447 1.261596 -6.178294 0.681234 64.713510 -0.042727 -10.893536 1.374182 -0.155898 0.125959 -0.251565 -0.000000 0.000000 0.000000 0.000000 0.000000 0.000000 0.000000 
